<svg xmlns="http://www.w3.org/2000/svg" xmlns:xlink="http://www.w3.org/1999/xlink" width="500" zoomAndPan="magnify" viewBox="0 0 375 374.999991" height="500" preserveAspectRatio="xMidYMid meet" version="1.0"><defs><g/><clipPath id="08c009355d"><path d="M 72.890625 142.910156 L 309.621094 142.910156 L 309.621094 273.410156 L 72.890625 273.410156 Z M 72.890625 142.910156 " clip-rule="nonzero"/></clipPath></defs><g fill="#000000" fill-opacity="1"><g transform="translate(96.276772, 195.697319)"><g><path d="M 12.054688 -8.15625 C 12.054688 -2.558594 9.496094 -1.582031 3.652344 -1.582031 L 3.652344 0 L 33.972656 0 L 33.972656 -1.582031 C 28.128906 -1.582031 25.449219 -2.558594 25.449219 -8.15625 L 25.449219 -39.207031 L 30.5625 -44.929688 L 51.871094 -14.003906 C 56.621094 -7.304688 60.882812 0 71.109375 0 L 84.257812 0 L 84.257812 -1.582031 C 79.632812 -1.582031 75.734375 -2.921875 72.082031 -8.15625 L 50.167969 -40.058594 C 48.460938 -38.597656 46.390625 -37.867188 44.078125 -37.867188 C 39.816406 -37.867188 34.945312 -40.546875 31.78125 -46.148438 L 62.828125 -80.972656 C 67.578125 -86.453125 70.742188 -87.183594 77.804688 -87.183594 L 77.804688 -88.765625 L 54.429688 -88.765625 L 54.429688 -87.183594 C 61.003906 -87.183594 66.605469 -86.695312 60.882812 -80.851562 L 25.449219 -41.398438 L 25.449219 -80.605469 C 25.449219 -86.207031 28.128906 -87.183594 33.972656 -87.183594 L 33.972656 -88.765625 L 3.652344 -88.765625 L 3.652344 -87.183594 C 9.496094 -87.183594 12.054688 -86.207031 12.054688 -80.605469 Z M 12.054688 -8.15625 "/></g></g></g><g clip-path="url(#08c009355d)"><path fill="#000000" d="M 268.464844 214.726562 C 269.90625 215.148438 271.394531 215.46875 272.90625 215.683594 C 274.398438 215.894531 275.917969 216.007812 277.457031 216.007812 C 286.324219 216.007812 294.355469 212.410156 300.167969 206.597656 C 305.976562 200.789062 309.574219 192.757812 309.574219 183.890625 C 309.574219 175.019531 305.976562 166.992188 300.167969 161.179688 C 294.355469 155.367188 286.324219 151.773438 277.457031 151.773438 C 272.527344 151.773438 267.855469 152.886719 263.675781 154.871094 C 259.339844 156.9375 255.535156 159.945312 252.535156 163.632812 C 243.449219 174.644531 236.042969 186.199219 228.648438 197.746094 C 213.40625 221.539062 198.179688 245.300781 168.429688 263.859375 C 165.710938 265.34375 162.871094 266.632812 159.929688 267.707031 C 153.121094 270.207031 145.757812 271.566406 138.074219 271.566406 C 120.535156 271.566406 104.652344 264.457031 93.160156 252.964844 C 81.667969 241.46875 74.558594 225.589844 74.558594 208.050781 C 74.558594 190.511719 81.667969 174.628906 93.160156 163.136719 C 104.035156 152.265625 118.828125 145.316406 135.242188 144.597656 C 133.953125 145.53125 133.113281 147.050781 133.113281 148.765625 C 133.113281 151.605469 135.414062 153.910156 138.253906 153.910156 C 141.09375 153.910156 143.398438 151.605469 143.398438 148.765625 C 143.398438 146.292969 141.652344 144.226562 139.328125 143.734375 L 139.339844 142.925781 L 138.078125 142.914062 C 120.089844 142.914062 103.804688 150.203125 92.019531 161.992188 C 80.230469 173.78125 72.9375 190.0625 72.9375 208.054688 C 72.9375 226.039062 80.230469 242.324219 92.019531 254.113281 C 103.804688 265.902344 120.089844 273.195312 138.078125 273.195312 C 145.949219 273.195312 153.5 271.792969 160.492188 269.234375 C 167.738281 266.578125 174.378906 262.671875 180.15625 257.777344 C 203.277344 240.347656 216.636719 219.5 230.011719 198.625 C 237.390625 187.109375 244.773438 175.585938 253.789062 164.660156 L 253.164062 164.148438 L 253.792969 164.660156 C 256.640625 161.160156 260.25 158.300781 264.371094 156.34375 C 268.332031 154.457031 272.773438 153.398438 277.460938 153.398438 C 285.882812 153.398438 293.507812 156.8125 299.023438 162.332031 C 304.542969 167.851562 307.957031 175.476562 307.957031 183.898438 C 307.957031 192.320312 304.542969 199.941406 299.023438 205.460938 C 293.507812 210.980469 285.882812 214.394531 277.460938 214.394531 C 275.980469 214.394531 274.539062 214.289062 273.132812 214.089844 C 271.691406 213.886719 270.28125 213.582031 268.917969 213.183594 L 268.46875 214.734375 Z M 268.464844 214.726562 " fill-opacity="1" fill-rule="nonzero"/></g><g fill="#000000" fill-opacity="1"><g transform="translate(119.514874, 234.664767)"><g><path d="M 1.617188 0 L 1.617188 -3.558594 L 4.171875 0 L 5.175781 0 L 2.386719 -3.792969 L 5.175781 -7.585938 L 4.171875 -7.585938 L 1.617188 -4.015625 L 1.617188 -7.585938 L 0.835938 -7.585938 L 0.835938 0 Z M 1.617188 0 "/></g></g></g><g fill="#000000" fill-opacity="1"><g transform="translate(132.747195, 234.664767)"><g><path d="M 1.617188 -3.75 L 1.617188 -6.839844 L 3.378906 -6.839844 C 3.839844 -6.839844 4.207031 -6.695312 4.484375 -6.402344 C 4.753906 -6.113281 4.898438 -5.757812 4.898438 -5.3125 C 4.898438 -4.863281 4.753906 -4.496094 4.460938 -4.195312 C 4.171875 -3.894531 3.816406 -3.75 3.378906 -3.75 Z M 5.679688 -5.300781 C 5.679688 -5.945312 5.433594 -6.503906 4.964844 -6.941406 C 4.507812 -7.363281 3.9375 -7.585938 3.269531 -7.585938 L 0.835938 -7.585938 L 0.835938 0 L 1.617188 0 L 1.617188 -3 L 2.519531 -3 L 4.753906 0 L 5.800781 0 L 3.457031 -3 C 4.050781 -3.035156 4.550781 -3.246094 4.964844 -3.636719 C 5.433594 -4.070312 5.679688 -4.628906 5.679688 -5.300781 Z M 5.679688 -5.300781 "/></g></g></g><g fill="#000000" fill-opacity="1"><g transform="translate(146.760124, 234.664767)"><g><path d="M 1.617188 0 L 1.617188 -7.585938 L 0.835938 -7.585938 L 0.835938 0 Z M 1.617188 0 "/></g></g></g><g fill="#000000" fill-opacity="1"><g transform="translate(157.159955, 234.664767)"><g><path d="M 2.933594 -3.570312 C 3.914062 -3.335938 4.585938 -3.078125 4.941406 -2.789062 C 5.1875 -2.589844 5.3125 -2.332031 5.3125 -2.019531 C 5.3125 -1.707031 5.242188 -1.449219 5.109375 -1.273438 C 4.773438 -0.804688 4.171875 -0.570312 3.324219 -0.570312 C 2.140625 -0.570312 1.472656 -0.96875 1.328125 -1.773438 L 0.414062 -1.773438 C 0.679688 -0.492188 1.652344 0.144531 3.324219 0.144531 C 4.070312 0.144531 4.695312 -0.0117188 5.199219 -0.347656 C 5.800781 -0.738281 6.113281 -1.316406 6.113281 -2.074219 C 6.113281 -2.699219 5.867188 -3.179688 5.378906 -3.515625 C 5.03125 -3.761719 4.472656 -3.984375 3.703125 -4.183594 C 2.921875 -4.382812 2.421875 -4.550781 2.1875 -4.675781 C 1.671875 -4.929688 1.417969 -5.289062 1.429688 -5.757812 C 1.429688 -6.003906 1.472656 -6.214844 1.585938 -6.371094 C 1.875 -6.804688 2.386719 -7.027344 3.125 -7.027344 C 4.160156 -7.027344 4.753906 -6.695312 4.910156 -6.046875 L 5.757812 -6.046875 C 5.476562 -7.140625 4.597656 -7.699219 3.125 -7.699219 C 2.453125 -7.699219 1.863281 -7.519531 1.371094 -7.164062 C 0.871094 -6.804688 0.613281 -6.28125 0.613281 -5.566406 C 0.613281 -4.597656 1.394531 -3.925781 2.933594 -3.570312 Z M 2.933594 -3.570312 "/></g></g></g><g fill="#000000" fill-opacity="1"><g transform="translate(171.50743, 234.664767)"><g><path d="M 1.617188 0 L 1.617188 -3.390625 L 5.066406 -3.390625 L 5.066406 0 L 5.847656 0 L 5.847656 -7.585938 L 5.066406 -7.585938 L 5.066406 -4.171875 L 1.617188 -4.171875 L 1.617188 -7.585938 L 0.835938 -7.585938 L 0.835938 0 Z M 1.617188 0 "/></g></g></g><g fill="#000000" fill-opacity="1"><g transform="translate(186.1337, 234.664767)"><g><path d="M 2.0625 -2.789062 L 3.449219 -6.28125 L 4.820312 -2.789062 Z M 6.773438 0 L 3.449219 -8.109375 L 0.113281 0 L 0.960938 0 L 1.773438 -2.0625 L 5.109375 -2.0625 L 5.925781 0 Z M 6.773438 0 "/></g></g></g><g fill="#000000" fill-opacity="1"><g transform="translate(200.960698, 234.664767)"><g><path d="M 1.617188 -5.589844 L 5.878906 0.46875 L 5.878906 -7.585938 L 5.097656 -7.585938 L 5.097656 -2.007812 L 0.835938 -8.066406 L 0.835938 0 L 1.617188 0 Z M 1.617188 -5.589844 "/></g></g></g><g fill="#000000" fill-opacity="1"><g transform="translate(215.620416, 234.664767)"><g/></g></g><g fill="#000000" fill-opacity="1"><g transform="translate(226.577824, 234.664767)"><g><path d="M 6.726562 -3.792969 C 6.726562 -4.339844 6.617188 -4.84375 6.414062 -5.3125 C 6.214844 -5.777344 5.933594 -6.179688 5.589844 -6.515625 C 5.234375 -6.851562 4.820312 -7.105469 4.351562 -7.296875 C 3.871094 -7.484375 3.359375 -7.585938 2.824219 -7.585938 L 0.835938 -7.585938 L 0.835938 0 L 2.824219 0 C 3.359375 0 3.871094 -0.0898438 4.351562 -0.277344 C 4.820312 -0.46875 5.234375 -0.738281 5.589844 -1.070312 C 5.933594 -1.40625 6.214844 -1.796875 6.414062 -2.265625 C 6.617188 -2.734375 6.726562 -3.234375 6.726562 -3.792969 Z M 5.96875 -3.792969 C 5.96875 -2.921875 5.65625 -2.199219 5.054688 -1.628906 C 4.453125 -1.058594 3.714844 -0.78125 2.84375 -0.78125 L 1.617188 -0.78125 L 1.617188 -6.804688 L 2.84375 -6.804688 C 3.714844 -6.804688 4.453125 -6.515625 5.054688 -5.957031 C 5.65625 -5.378906 5.96875 -4.652344 5.96875 -3.792969 Z M 5.96875 -3.792969 "/></g></g></g><g fill="#000000" fill-opacity="1"><g transform="translate(241.750507, 234.664767)"><g><path d="M 5.34375 0 L 5.34375 -0.726562 L 1.617188 -0.726562 L 1.617188 -3.425781 L 5.234375 -3.425781 L 5.234375 -4.160156 L 1.617188 -4.160156 L 1.617188 -6.863281 L 5.34375 -6.863281 L 5.34375 -7.585938 L 0.835938 -7.585938 L 0.835938 0 Z M 5.34375 0 "/></g></g></g><g fill="#000000" fill-opacity="1"><g transform="translate(255.874945, 234.664767)"><g><path d="M 3.558594 0.457031 L 6.996094 -7.585938 L 6.148438 -7.585938 L 3.558594 -1.472656 L 0.960938 -7.585938 L 0.113281 -7.585938 Z M 3.558594 0.457031 "/></g></g></g><g fill="#000000" fill-opacity="1"><g transform="translate(180.697522, 215.343091)"><g><path d="M 3.964844 0 L 43.609375 0 C 83.914062 0 97.128906 -23.523438 97.128906 -49.425781 C 97.128906 -91.976562 64.488281 -96.335938 47.046875 -96.335938 L 3.964844 -96.335938 L 3.964844 -94.621094 C 10.308594 -94.621094 13.082031 -93.5625 13.082031 -87.484375 L 13.082031 -8.855469 C 13.082031 -2.644531 10.308594 -1.71875 3.964844 -1.71875 Z M 42.421875 -1.71875 C 31.714844 -1.71875 27.621094 -2.773438 27.621094 -8.855469 L 27.621094 -87.617188 C 27.621094 -93.5625 32.246094 -94.621094 44.667969 -94.621094 C 66.472656 -94.621094 82.726562 -79.554688 82.726562 -49.425781 C 82.726562 -27.222656 75.589844 -1.71875 42.421875 -1.71875 Z M 42.421875 -1.71875 "/></g></g></g></svg>